<svg width="1578" height="344" viewBox="0 0 1578 344" fill="none" xmlns="http://www.w3.org/2000/svg">
<path fill-rule="evenodd" clip-rule="evenodd" d="M0 19.6561L40.1561 13.6497C80.3122 7.64336 160.624 -4.36938 240.937 1.63699C321.249 7.64336 401.561 31.6688 481.873 73.7134C562.186 115.758 642.498 175.822 722.81 193.841C803.122 211.86 883.435 187.834 963.747 157.803C1044.06 127.771 1124.37 91.7325 1204.68 97.7389C1285 103.745 1365.31 151.796 1445.62 181.828C1525.93 211.86 1509.48 194.5 1549.72 211C1549.72 236.5 1549.72 218.5 1549.72 236.5V265.5V297.5V315.5V344C1630.03 344 1509.57 344 1549.72 344C1469.41 344 1525.93 344 1445.62 344C1365.31 344 1285 344 1204.68 344C1124.37 344 1044.06 344 963.747 344C883.435 344 803.122 344 722.81 344C642.498 344 562.186 344 481.873 344C401.561 344 321.249 344 240.937 344C160.624 344 80.3122 344 40.1561 344H0V19.6561Z" fill="#1f7da2"/>
</svg>
